<?xml version="1.0" standalone="no"?>
<!DOCTYPE svg PUBLIC "-//W3C//DTD SVG 20010904//EN"
 "http://www.w3.org/TR/2001/REC-SVG-20010904/DTD/svg10.dtd">
<svg version="1.0" xmlns="http://www.w3.org/2000/svg"
 width="104.000000pt" height="104.000000pt" viewBox="0 0 104.000000 104.000000"
 preserveAspectRatio="xMidYMid meet">

<g transform="translate(0.000000,104.000000) scale(0.100000,-0.100000)"
fill="#000000" stroke="none">
<path d="M433 820 c-19 -48 -34 -50 -80 -10 -47 42 -55 39 -47 -19 3 -27 2
-51 -3 -54 -6 -4 -27 -2 -47 4 -21 6 -40 8 -43 5 -3 -3 4 -20 16 -39 29 -48
27 -57 -17 -57 -21 0 -42 -3 -46 -7 -3 -4 12 -26 35 -49 l42 -42 -42 -13 c-22
-7 -41 -16 -41 -20 0 -4 17 -18 37 -30 l37 -23 -42 -14 c-23 -7 -42 -17 -42
-20 0 -4 20 -18 45 -31 30 -16 45 -30 45 -44 0 -18 -4 -19 -70 -13 -41 4 -70
3 -70 -2 0 -10 56 -22 108 -22 27 0 32 -4 32 -24 0 -47 -8 -54 -52 -48 -51 6
-44 -13 8 -22 31 -6 35 -10 30 -30 -3 -14 0 -28 8 -35 12 -10 15 3 21 81 3 51
7 163 9 249 2 142 4 159 25 193 39 63 77 75 263 82 179 8 215 2 269 -43 41
-35 59 -74 59 -128 0 -102 -83 -175 -200 -175 -66 0 -118 48 -135 128 -10 46
-29 41 -20 -5 9 -49 30 -88 57 -107 18 -13 19 -18 8 -31 -8 -10 -11 -30 -6
-61 l6 -46 -34 21 c-18 12 -45 21 -60 21 -51 0 -87 -63 -70 -122 14 -49 48
-67 142 -74 76 -6 83 -9 88 -30 8 -33 25 -30 22 3 -3 24 1 28 37 35 22 5 52
10 68 12 35 4 41 10 24 25 -11 8 -23 7 -53 -5 -55 -23 -242 -24 -277 -1 -34
22 -44 70 -22 103 24 37 41 39 98 10 102 -51 209 -54 249 -6 23 26 64 26 80 0
15 -23 28 -26 28 -6 0 21 -40 46 -72 46 -16 0 -37 -10 -51 -26 -20 -22 -33
-26 -76 -26 -75 1 -89 8 -102 52 -18 60 -11 67 73 72 87 4 138 27 182 82 28
35 31 44 31 111 0 67 -3 76 -31 111 -53 66 -90 79 -242 82 l-132 4 -15 34 c-8
19 -17 34 -20 34 -4 0 -14 -18 -22 -40z m27 -26 c0 -8 -5 -12 -10 -9 -6 4 -8
11 -5 16 9 14 15 11 15 -7z m-106 -25 c-10 -16 -24 -9 -24 12 0 18 2 19 15 9
8 -7 12 -16 9 -21z m-79 -58 c3 -5 1 -12 -4 -15 -5 -3 -11 1 -15 9 -6 16 9 21
19 6z m-35 -102 c0 -18 -2 -19 -15 -9 -8 7 -15 16 -15 21 0 5 7 9 15 9 9 0 15
-9 15 -21z m0 -99 c0 -18 -3 -19 -21 -9 -17 9 -19 13 -8 20 22 14 29 11 29
-11z m0 -90 c0 -18 -3 -19 -20 -10 -22 12 -18 30 6 30 8 0 14 -9 14 -20z"/>
<path d="M533 694 c-8 -22 10 -49 32 -49 22 0 40 27 32 49 -8 21 -56 21 -64 0z
m45 -15 c-2 -6 -8 -10 -13 -10 -5 0 -11 4 -13 10 -2 6 4 11 13 11 9 0 15 -5
13 -11z"/>
<path d="M758 615 c-9 -19 -8 -29 6 -50 20 -31 31 -32 51 -1 12 18 13 30 6 50
-13 34 -47 35 -63 1z m42 -20 c0 -25 -14 -34 -24 -16 -8 12 3 41 15 41 5 0 9
-11 9 -25z"/>
</g>
</svg>
